<svg width="141" height="120" viewBox="0 0 141 120" fill="none" xmlns="http://www.w3.org/2000/svg">
<g clip-path="url(#clip0_498_9276)">
<path d="M125.365 48.3584V50.7465H121.258C119.047 50.7439 116.904 49.9769 115.194 48.5755C113.484 47.1741 112.31 45.2244 111.873 43.0569L111.037 38.8062H115.813C118.347 38.8062 120.776 39.8125 122.568 41.6039C124.359 43.3953 125.365 45.825 125.365 48.3584Z" fill="#4BD099"/>
<path d="M122.858 34.2207L123.479 36.5371L119.515 37.5879C117.383 38.1623 115.117 37.9787 113.105 37.0684C111.093 36.1582 109.459 34.5777 108.482 32.5968L106.548 28.7043L111.181 27.4625C113.625 26.8134 116.228 27.1604 118.417 28.4273C120.606 29.6942 122.203 31.7777 122.858 34.2207Z" fill="#4BD099"/>
<path d="M119.514 63.9043C117.383 63.3293 115.516 62.0362 114.228 60.2436C112.94 58.4509 112.311 56.2687 112.446 54.0655L112.732 49.7192L117.341 50.961C118.554 51.2853 119.69 51.8452 120.686 52.6089C121.682 53.3725 122.517 54.3248 123.145 55.4115C123.772 56.4982 124.18 57.6979 124.344 58.942C124.507 60.1862 124.424 61.4504 124.099 62.6625L123.479 64.9551L119.514 63.9043Z" fill="#4BD099"/>
<path d="M119.205 76.1315L118.01 78.2091L114.452 76.1553C112.535 75.0535 111.06 73.3196 110.281 71.2504C109.501 69.1811 109.464 66.9052 110.178 64.8121L111.563 60.7046L115.694 63.0926C117.888 64.357 119.49 66.4405 120.148 68.8855C120.806 71.3304 120.467 73.9366 119.205 76.1315Z" fill="#4BD099"/>
<path d="M110.966 74.3882C112.755 76.1823 113.759 78.6127 113.759 81.1464C113.759 83.6801 112.755 86.1104 110.966 87.9046L109.27 89.5762L106.357 86.6867C104.803 85.1193 103.836 83.0649 103.619 80.8688C103.402 78.6726 103.947 76.4686 105.163 74.627L107.575 71.021L110.966 74.3882Z" fill="#4BD099"/>
<path d="M116.816 21.2061L118.01 23.2837L114.452 25.3374C112.538 26.4405 110.301 26.8481 108.121 26.4913C105.94 26.1344 103.95 25.035 102.488 23.3792L99.6221 20.1076L103.753 17.7195C105.95 16.4565 108.556 16.1143 111.004 16.7676C113.452 17.4209 115.541 19.0167 116.816 21.2061Z" fill="#4BD099"/>
<path d="M101.079 79.9282L103.467 84.0596C104.733 86.2574 105.075 88.8681 104.416 91.3177C103.758 93.7673 102.154 95.8551 99.9566 97.1222L97.9029 98.3163L95.8491 94.7581C94.7406 92.8453 94.3299 90.6073 94.687 88.4255C95.0441 86.2438 96.1469 84.2534 97.8073 82.7939L101.079 79.9282Z" fill="#4BD099"/>
<path d="M92.4821 86.8774L93.7 91.4864C94.0273 92.6969 94.1127 93.9601 93.9514 95.2037C93.79 96.4473 93.3849 97.6468 92.7594 98.7337C92.1339 99.8205 91.3002 100.773 90.3061 101.538C89.3119 102.302 88.1768 102.863 86.9657 103.188L84.6492 103.809L83.5746 99.8207C83.0105 97.6855 83.2015 95.4209 84.1154 93.4104C85.0293 91.3998 86.6099 89.7668 88.5895 88.7879L92.4821 86.8774Z" fill="#4BD099"/>
<path d="M34.3083 28.7044L32.374 32.5969C31.3992 34.5793 29.7656 36.1612 27.7529 37.0717C25.7402 37.9822 23.4736 38.1647 21.3411 37.5879L17.377 36.5372L17.9978 34.2208C18.3221 33.0085 18.882 31.872 19.6457 30.8762C20.4093 29.8804 21.3617 29.0448 22.4483 28.4172C23.535 27.7896 24.7347 27.3822 25.9789 27.2184C27.223 27.0546 28.4873 27.1376 29.6993 27.4626L34.3083 28.7044Z" fill="#4BD099"/>
<path d="M45.0312 94.7581L42.9775 98.3163L40.8999 97.1222C39.8125 96.4942 38.8596 95.6579 38.0957 94.6613C37.3318 93.6646 36.7719 92.5271 36.4481 91.3138C36.1243 90.1006 36.0428 88.8354 36.2084 87.5906C36.3741 86.3458 36.7835 85.1459 37.4133 84.0596L39.8014 79.9282L43.0491 82.7939C44.7135 84.2503 45.8209 86.2392 46.1823 88.4211C46.5438 90.603 46.137 92.8427 45.0312 94.7581Z" fill="#4BD099"/>
<path d="M70.4405 101.564C70.4348 99.357 71.1963 97.2165 72.5946 95.5089C73.9929 93.8013 75.9412 92.6326 78.1061 92.203L82.3808 91.3433V96.1194C82.3808 98.6528 81.3744 101.082 79.583 102.874C77.7916 104.665 75.3619 105.672 72.8285 105.672H70.4405V101.564Z" fill="#4BD099"/>
<path d="M52.2912 88.7879C54.2684 89.7686 55.8455 91.403 56.7552 93.4138C57.6648 95.4247 57.8511 97.6882 57.2823 99.8207L56.2076 103.809L53.9151 103.188C52.7028 102.864 51.5663 102.304 50.5705 101.54C49.5747 100.776 48.7391 99.8241 48.1115 98.7374C47.4839 97.6507 47.0766 96.451 46.9128 95.2069C46.749 93.9627 46.8319 92.6985 47.1569 91.4864L48.3987 86.8774L52.2912 88.7879Z" fill="#4BD099"/>
<path d="M70.4403 101.564V105.672H68.0522C65.5188 105.672 63.0892 104.665 61.2978 102.874C59.5064 101.082 58.5 98.6528 58.5 96.1194V91.3433L62.7507 92.203C64.9171 92.6337 66.8673 93.8019 68.2693 95.5086C69.6713 97.2154 70.4385 99.3554 70.4403 101.564Z" fill="#4BD099"/>
<path d="M34.5001 86.6867L31.5867 89.5762L29.915 87.9046C29.024 87.019 28.3169 85.9661 27.8344 84.8062C27.3519 83.6464 27.1035 82.4026 27.1035 81.1464C27.1035 79.8902 27.3519 78.6464 27.8344 77.4865C28.3169 76.3267 29.024 75.2737 29.915 74.3882L33.2822 71.021L35.6941 74.627C36.9207 76.465 37.4721 78.6714 37.2544 80.8704C37.0367 83.0694 36.0633 85.1248 34.5001 86.6867Z" fill="#4BD099"/>
<path d="M26.4278 76.1553L22.8696 78.2091L21.6756 76.1315C21.047 75.0467 20.6385 73.8487 20.4735 72.6059C20.3085 71.3631 20.3903 70.1 20.7142 68.8888C21.0381 67.6777 21.5976 66.5423 22.3609 65.5477C23.1241 64.5531 24.0761 63.7188 25.1622 63.0926L29.2935 60.7046L30.7025 64.8121C31.4101 66.9055 31.371 69.1795 30.5917 71.2474C29.8124 73.3153 28.3411 75.0495 26.4278 76.1553Z" fill="#4BD099"/>
<path d="M28.9833 43.0569C28.5526 45.2233 27.3844 47.1735 25.6776 48.5755C23.9708 49.9775 21.8309 50.7447 19.6221 50.7465H15.5146V48.3584C15.5146 45.825 16.521 43.3953 18.3124 41.6039C20.1038 39.8125 22.5335 38.8062 25.0669 38.8062H29.843L28.9833 43.0569Z" fill="#4BD099"/>
<path d="M21.3416 63.9043L17.3774 64.9551L16.7565 62.6625C16.4315 61.4504 16.3486 60.1862 16.5124 58.942C16.6762 57.6979 17.0835 56.4982 17.7111 55.4115C18.3387 54.3248 19.1743 53.3725 20.1701 52.6089C21.1659 51.8452 22.3024 51.2853 23.5147 50.961L28.1237 49.7192L28.4102 54.0655C28.5453 56.2687 27.9157 58.4509 26.6278 60.2436C25.3399 62.0362 23.4727 63.3293 21.3416 63.9043Z" fill="#4BD099"/>
<path d="M41.2343 20.1075L38.3686 23.3791C36.9104 25.0338 34.9245 26.1329 32.7481 26.4898C30.5716 26.8468 28.3387 26.4395 26.4283 25.3373L22.8701 23.2836L24.0641 21.206C25.3325 19.0163 27.4178 17.4193 29.8624 16.7656C32.3069 16.112 34.911 16.455 37.103 17.7194L41.2343 20.1075Z" fill="#4BD099"/>
<path d="M140.41 57.1462L138.499 61.0388C137.519 63.0159 135.884 64.593 133.873 65.5027C131.863 66.4124 129.599 66.5986 127.467 66.0298L123.479 64.9552L124.099 62.6627C124.424 61.4504 124.984 60.3139 125.747 59.3181C126.511 58.3223 127.463 57.4867 128.55 56.8591C129.637 56.2315 130.836 55.8241 132.08 55.6603C133.325 55.4965 134.589 55.5795 135.801 55.9045L140.41 57.1462Z" fill="#4BD099"/>
<path d="M136.375 75.0328L133.509 78.3044C132.051 79.9591 130.065 81.0582 127.889 81.4151C125.712 81.7721 123.479 81.3648 121.569 80.2626L118.011 78.2089L119.205 76.1313C120.473 73.9416 122.558 72.3446 125.003 71.6909C127.448 71.0373 130.052 71.3803 132.244 72.6447L136.375 75.0328Z" fill="#4BD099"/>
<path d="M138.834 43.0569C138.403 45.2233 137.235 47.1735 135.528 48.5755C133.821 49.9775 131.681 50.7447 129.473 50.7465H125.365V48.3584C125.365 45.825 126.372 43.3953 128.163 41.6039C129.954 39.8125 132.384 38.8062 134.917 38.8062H139.694L138.834 43.0569Z" fill="#4BD099"/>
<path d="M127.849 91.2714L124.219 93.6834C122.385 94.9099 120.182 95.4614 117.987 95.2436C115.792 95.0259 113.74 94.0523 112.183 92.4893L109.27 89.5759L110.965 87.9043C111.848 87.0134 112.899 86.3063 114.057 85.8238C115.215 85.3412 116.457 85.0928 117.711 85.0928C118.966 85.0928 120.208 85.3412 121.366 85.8238C122.524 86.3063 123.574 87.0134 124.458 87.9043L127.849 91.2714Z" fill="#4BD099"/>
<path d="M127.467 35.4629L123.479 36.5375L122.858 34.2211C122.207 31.7733 122.552 29.167 123.819 26.9736C125.086 24.7801 127.171 23.1784 129.616 22.5196L134.225 21.2778L134.512 25.6241C134.654 27.8253 134.03 30.0079 132.746 31.8013C131.462 33.5947 129.597 34.8885 127.467 35.4629Z" fill="#4BD099"/>
<path d="M116.816 21.2062C116.188 20.1215 115.779 18.9234 115.614 17.6806C115.449 16.4378 115.531 15.1747 115.855 13.9635C116.179 12.7524 116.738 11.617 117.501 10.6224C118.265 9.62783 119.217 8.79355 120.303 8.16736L124.434 5.7793L125.819 9.88676C126.537 11.977 126.505 14.2518 125.73 16.3213C124.954 18.3908 123.483 20.1262 121.568 21.23L118.01 23.2838L116.816 21.2062Z" fill="#4BD099"/>
<path d="M113.019 100.609L115.407 104.74L111.275 106.149C109.185 106.853 106.916 106.812 104.853 106.033C102.789 105.253 101.059 103.784 99.9561 101.875L97.9023 98.3163L99.9561 97.1223C101.042 96.4925 102.242 96.0831 103.487 95.9174C104.732 95.7518 105.997 95.8332 107.21 96.1571C108.424 96.4809 109.561 97.0408 110.558 97.8047C111.554 98.5686 112.391 99.5215 113.019 100.609Z" fill="#4BD099"/>
<path d="M112.47 16.5492C110.024 15.8904 107.939 14.2888 106.672 12.0953C105.406 9.90179 105.06 7.29549 105.712 4.84772L106.954 0.23877L110.846 2.14922C112.827 3.12573 114.407 4.75954 115.318 6.7717C116.228 8.78386 116.412 11.0496 115.837 13.1821L114.786 17.1701L112.47 16.5492Z" fill="#4BD099"/>
<path d="M99.8852 114.555L95.5628 114.818C93.3599 114.969 91.1729 114.349 89.3775 113.064C87.5821 111.778 86.2903 109.908 85.724 107.773L84.6494 103.809L86.9658 103.188C88.1764 102.863 89.4391 102.78 90.6818 102.944C91.9244 103.108 93.1225 103.516 94.2073 104.143C95.2921 104.771 96.2424 105.607 97.0037 106.603C97.7649 107.599 98.3221 108.735 98.6434 109.946L99.8852 114.555Z" fill="#4BD099"/>
<path d="M70.4405 105.672H72.8285C75.3619 105.672 77.7916 106.678 79.583 108.47C81.3744 110.261 82.3808 112.691 82.3808 115.224V120L78.1061 119.141C75.9412 118.711 73.9929 117.542 72.5946 115.835C71.1963 114.127 70.4348 111.986 70.4405 109.779V105.672Z" fill="#4BD099"/>
<path d="M53.915 103.188L56.2075 103.809L55.1568 107.773C54.5876 109.906 53.2952 111.775 51.5004 113.06C49.7057 114.345 47.5203 114.966 45.3179 114.818L40.9717 114.555L42.2135 109.946C42.5377 108.734 43.0977 107.598 43.8613 106.602C44.6249 105.606 45.5773 104.77 46.664 104.143C47.7506 103.515 48.9503 103.108 50.1945 102.944C51.4386 102.78 52.7029 102.863 53.915 103.188Z" fill="#4BD099"/>
<path d="M29.9148 87.9043L31.5865 89.5759L28.6969 92.4893C27.1351 94.0525 25.0796 95.0259 22.8807 95.2436C20.6817 95.4613 18.4753 94.9099 16.6372 93.6834L13.0312 91.2714L16.3984 87.9043C17.284 87.0133 18.3369 86.3062 19.4968 85.8237C20.6566 85.3412 21.9004 85.0928 23.1566 85.0928C24.4128 85.0928 25.6566 85.3412 26.8165 85.8237C27.9763 86.3062 29.0293 87.0133 29.9148 87.9043Z" fill="#4BD099"/>
<path d="M42.9771 98.3164L40.9234 101.875C39.8159 103.786 38.0816 105.256 36.0142 106.035C33.9469 106.814 31.6738 106.855 29.5801 106.149L25.4727 104.74L27.8607 100.609C28.4869 99.5228 29.3212 98.5709 30.3158 97.8076C31.3104 97.0444 32.4457 96.4848 33.6569 96.161C34.868 95.8371 36.1312 95.7553 37.374 95.9203C38.6168 96.0853 39.8148 96.4938 40.8995 97.1224L42.9771 98.3164Z" fill="#4BD099"/>
<path d="M70.4403 105.672V109.779C70.4385 111.988 69.6713 114.128 68.2693 115.835C66.8673 117.542 64.9171 118.71 62.7507 119.141L58.5 120V115.224C58.5 112.691 59.5064 110.261 61.2978 108.47C63.0892 106.678 65.5188 105.672 68.0522 105.672H70.4403Z" fill="#4BD099"/>
<path d="M21.6755 76.1311L22.8695 78.2087L19.3113 80.2625C17.3968 81.3647 15.1604 81.7718 12.9803 81.415C10.8002 81.0582 8.81031 79.9593 7.34712 78.3043L4.48145 75.0326L8.61279 72.6446C10.8086 71.3803 13.4159 71.0374 15.864 71.6908C18.3121 72.3442 20.4017 73.9408 21.6755 76.1311Z" fill="#4BD099"/>
<path d="M16.7567 62.6627L17.3776 64.9552L13.4135 66.0298C11.281 66.601 9.01651 66.4158 7.00512 65.5059C4.99373 64.596 3.35961 63.0175 2.38062 61.0388L0.446289 57.1462L5.05524 55.9045C6.26733 55.5795 7.53157 55.4965 8.77573 55.6603C10.0199 55.8241 11.2196 56.2315 12.3062 56.8591C13.3929 57.4867 14.3453 58.3223 15.1089 59.3181C15.8725 60.3139 16.4325 61.4504 16.7567 62.6627Z" fill="#4BD099"/>
<path d="M15.5149 48.3584V50.7465H11.4074C9.19621 50.7439 7.05388 49.9769 5.34347 48.5755C3.63305 47.1741 2.45974 45.2244 2.02234 43.0569L1.18652 38.8062H5.96264C8.49605 38.8062 10.9257 39.8125 12.7171 41.6039C14.5085 43.3953 15.5149 45.825 15.5149 48.3584Z" fill="#4BD099"/>
<path d="M11.2405 22.5196C13.6863 23.1784 15.7712 24.7801 17.0381 26.9736C18.3049 29.167 18.6504 31.7733 17.9987 34.2211L17.3778 36.5375L13.4136 35.4629C11.2809 34.8907 9.41182 33.5983 8.12343 31.805C6.83504 30.0117 6.20668 27.8279 6.34496 25.6241L6.63152 21.2778L11.2405 22.5196Z" fill="#4BD099"/>
<path d="M24.0637 21.2062L22.8697 23.2838L19.3115 21.23C17.3982 20.1242 15.9269 18.39 15.1476 16.3221C14.3683 14.2542 14.3292 11.9802 15.0368 9.88676L16.4219 5.7793L20.5533 8.16736C22.747 9.43167 24.349 11.5152 25.0073 13.9602C25.6655 16.4051 25.3261 19.0113 24.0637 21.2062Z" fill="#4BD099"/>
<path d="M35.8852 4.84772C36.5369 7.29549 36.1914 9.90179 34.9246 12.0953C33.6577 14.2888 31.5729 15.8904 29.127 16.5492L26.8106 17.1701L25.7598 13.1821C25.1854 11.0496 25.369 8.78386 26.2793 6.7717C27.1895 4.75954 28.77 3.12573 30.7509 2.14922L34.6434 0.23877L35.8852 4.84772Z" fill="#4BD099"/>
<path d="M91.8255 75.919L89.6523 71.6634C93.5757 69.6638 96.8698 66.6182 99.1705 62.8633C101.471 59.1085 102.689 54.7906 102.689 50.387C102.689 45.9834 101.471 41.6656 99.1705 37.9107C96.8698 34.1559 93.5757 31.1103 89.6523 29.1106L91.8255 24.8599C96.5325 27.2599 100.484 30.9145 103.244 35.4199C106.004 39.9252 107.465 45.1059 107.465 50.3894C107.465 55.6729 106.004 60.8536 103.244 65.359C100.484 69.8643 96.5325 73.5189 91.8255 75.919Z" fill="#EC9B00"/>
<path d="M49.7713 75.919C45.0643 73.5189 41.1125 69.8643 38.3525 65.359C35.5925 60.8536 34.1318 55.6729 34.1318 50.3894C34.1318 45.1059 35.5925 39.9252 38.3525 35.4199C41.1125 30.9145 45.0643 27.2599 49.7713 24.8599L51.9444 29.1106C48.021 31.1103 44.7269 34.1559 42.4263 37.9107C40.1256 41.6656 38.908 45.9834 38.908 50.387C38.908 54.7906 40.1256 59.1085 42.4263 62.8633C44.7269 66.6182 48.021 69.6638 51.9444 71.6634L49.7713 75.919Z" fill="#EC9B00"/>
<path d="M52.3446 63V42.52L54.5846 44.76H47.8646V40.6H57.5286V63H52.3446ZM69.0359 63.384C67.4785 63.384 65.9319 63.1813 64.3959 62.776C62.8812 62.3493 61.5799 61.752 60.4919 60.984L62.5399 57.016C63.3932 57.6347 64.3745 58.1253 65.4839 58.488C66.6145 58.8507 67.7559 59.032 68.9079 59.032C70.2092 59.032 71.2332 58.776 71.9799 58.264C72.7265 57.752 73.0999 57.0373 73.0999 56.12C73.0999 55.544 72.9505 55.032 72.6519 54.584C72.3532 54.136 71.8199 53.7947 71.0519 53.56C70.3052 53.3253 69.2492 53.208 67.8839 53.208H62.1559L63.3079 40.6H76.9719V44.76H65.1639L67.8519 42.392L67.0519 51.384L64.3639 49.016H69.0999C71.3185 49.016 73.0999 49.3253 74.4439 49.944C75.8092 50.5413 76.8012 51.3627 77.4199 52.408C78.0385 53.4533 78.3479 54.6373 78.3479 55.96C78.3479 57.2827 78.0172 58.5093 77.3559 59.64C76.6945 60.7493 75.6705 61.656 74.2839 62.36C72.9185 63.0427 71.1692 63.384 69.0359 63.384ZM86.7231 59.192V44.408H90.8511V59.192H86.7231ZM81.1871 53.752V49.848H96.4191V53.752H81.1871Z" fill="#4BD099"/>
</g>
<defs>
<clipPath id="clip0_498_9276">
<rect width="140.299" height="120" fill="white" transform="translate(0.350586)"/>
</clipPath>
</defs>
</svg>
